Coordinates
version=1
nRows=16
nColumns=30
inDegrees=yes

Units are S.I. units (second, meters, Newtons, ...)
Angles are in degrees.

endheader
time	floatyaw	floatroll	floatpitch	floatx	floaty	floatz	pro_sup_l	deviation_l	flexion_l	cmc_flexion_l	cmc_abduction_l	mp_flexion_l	ip_flexion_l	2mcp_flexion_l	2mcp_abduction_l	2pm_flexion_l	2md_flexion_l	3mcp_flexion_l	3mcp_abduction_l	3pm_flexion_l	3md_flexion_l	4mcp_flexion_l	4mcp_abduction_l	4pm_flexion_l	4md_flexion_l	5mcp_flexion_l	5mcp_abduction_l	5pm_flexion_l	5md_flexion_l
-0.495000	-1.782892	-2.032873	94.941017	0.029623	-0.251645	0.054345	88.469456	10.547128	5.209380	11.682359	9.907354	-15.610357	-19.846808	31.486707	7.286657	24.956985	17.302087	20.848386	4.989439	28.445764	22.330745	7.483272	-3.584384	45.511818	32.719403	-2.878613	-8.605400	45.680855	37.680380
-0.485000	-1.782892	-2.032873	94.941017	0.034081	-0.250068	0.058752	88.753158	11.564755	5.686330	10.801741	10.374684	-15.542825	-19.361426	32.603732	7.399256	24.485219	17.055213	22.032867	5.010562	27.889239	22.308133	8.516877	-3.481027	45.069267	32.681059	-1.888656	-8.705515	44.763725	37.348901
-0.475000	-1.782892	-2.032873	94.941017	0.038787	-0.248588	0.063366	89.101797	12.599042	6.149072	9.966274	10.861565	-15.498383	-18.950460	33.723907	7.512758	24.026525	16.831901	23.207496	5.056918	27.353333	22.337000	9.479132	-3.410747	44.675627	32.698157	-1.027449	-8.769639	43.989639	37.178157
-0.465000	-1.782892	-2.032873	94.941017	0.043700	-0.247249	0.068174	89.514316	13.628231	6.590222	9.172099	11.375936	-15.468781	-18.607769	34.809274	7.629758	23.603636	16.653830	24.376332	5.127177	26.844983	22.429348	10.351531	-3.381160	44.350195	32.785578	-0.283568	-8.788945	43.367777	37.157631
-0.455000	-1.782892	-2.032873	94.941017	0.048773	-0.246078	0.073154	89.997714	14.628180	7.009034	8.420137	11.914701	-15.446017	-18.324847	35.817963	7.756587	23.249979	16.544982	25.560631	5.215023	26.363371	22.578431	11.154332	-3.390271	44.096153	32.938786	0.354768	-8.771903	42.893777	37.261596
-0.445000	-1.782892	-2.032873	94.941017	0.053970	-0.245073	0.078287	90.563587	15.579981	7.419826	7.714449	12.460445	-15.424964	-18.090723	36.718256	7.899950	22.994604	16.521389	26.791642	5.314195	25.899203	22.763652	11.936084	-3.429414	43.899452	33.138804	0.889012	-8.739847	42.555845	37.462076
-0.435000	-1.782892	-2.032873	94.941017	0.059273	-0.244215	0.083548	91.219535	16.474362	7.855735	7.058539	12.985951	-15.403758	-17.892900	37.497409	8.063337	22.851851	16.585864	28.093108	5.421121	25.443451	22.965950	12.755022	-3.487326	43.736650	33.362947	1.312655	-8.720333	42.342282	37.738273
-0.425000	-1.782892	-2.032873	94.941017	0.064684	-0.243481	0.088903	91.960450	17.310174	8.364613	6.449514	13.465674	-15.381469	-17.717099	38.161239	8.244692	22.819673	16.730193	29.461411	5.534030	25.000408	23.183963	13.662671	-3.553464	43.584745	33.594680	1.627735	-8.740209	42.243354	38.076218
-0.415000	-1.782892	-2.032873	94.941017	0.070213	-0.242856	0.094310	92.766486	18.089012	8.997232	5.874107	13.889395	-15.354915	-17.546708	38.725911	8.436215	22.885716	16.942444	30.857112	5.650221	24.595203	23.438894	14.694747	-3.620233	43.427784	33.828253	1.863215	-8.818445	42.246617	38.461603
-0.405000	-1.782892	-2.032873	94.941017	0.075872	-0.242349	0.099736	93.611148	18.810671	9.791381	5.312162	14.270966	-15.317662	-17.365427	39.207473	8.626475	23.036287	17.214057	32.215683	5.764098	24.269049	23.763475	15.866747	-3.684305	43.260754	34.067725	2.078775	-8.959337	42.331937	38.874149
-0.395000	-1.782892	-2.032873	94.941017	0.081655	-0.241989	0.105162	94.475710	19.472451	10.757774	4.747959	14.646505	-15.262443	-17.163829	39.614899	8.804116	23.262272	17.542141	33.471519	5.867534	24.063950	24.181865	17.169811	-3.746829	43.092867	34.322345	2.346832	-9.148829	42.473457	39.289630
-0.385000	-1.782892	-2.032873	94.941017	0.087528	-0.241818	0.110582	95.360609	20.071458	11.874079	4.181983	15.062308	-15.184978	-16.945202	39.949138	8.961432	23.559346	17.926498	34.580334	5.952357	24.005999	24.693908	18.567967	-3.812178	42.949079	34.600827	2.722250	-9.357223	42.649571	39.688821
-0.375000	-1.782892	-2.032873	94.941017	0.093425	-0.241872	0.115992	96.285789	20.606694	13.091108	3.633839	15.559200	-15.085766	-16.724566	40.206603	9.096027	23.924727	18.365349	35.528587	6.013612	24.097120	25.274315	20.003110	-3.885681	42.866466	34.907334	3.220674	-9.548867	42.853822	40.066503
-0.365000	-1.782892	-2.032873	94.941017	0.099256	-0.242177	0.121374	97.279600	21.078583	14.350189	3.133506	16.161829	-14.968473	-16.519856	40.383851	9.209935	24.354580	18.854427	36.329750	6.051920	24.318778	25.887536	21.411632	-3.971590	42.884449	35.241508	3.821900	-9.695058	43.097123	40.433232
-0.355000	-1.782892	-2.032873	94.941017	0.104943	-0.242744	0.126705	98.363324	21.486310	15.604613	2.706847	16.876515	-14.836762	-16.341051	40.481031	9.307095	24.843743	19.390261	37.015103	6.073644	24.643280	26.508680	22.747732	-4.072262	43.032393	35.602075	4.495898	-9.784133	43.398282	40.808334
-0.345000	-1.782892	-2.032873	94.941017	0.110438	-0.243568	0.131961	99.540012	21.825554	16.834566	2.364614	17.694512	-14.692590	-16.184829	40.503280	9.390810	25.386448	19.973867	37.625762	6.088408	25.044838	27.136700	24.001625	-4.188318	43.320079	35.989797	5.231623	-9.824051	43.769425	41.209288
